<?xml version="1.0" encoding="utf-8"?><!-- Uploaded to: SVG Repo, www.svgrepo.com, Generator: SVG Repo Mixer Tools -->
<svg version="1.1" id="Uploaded to svgrepo.com" xmlns="http://www.w3.org/2000/svg" xmlns:xlink="http://www.w3.org/1999/xlink" 
	 width="800px" height="800px" viewBox="0 0 32 32" xml:space="preserve">
<style type="text/css">
	.open_een{fill:#0B1719;}
</style>
<g>
	<g>
		<path class="open_een" d="M27,16.725c0.1,0,0.2-0.029,0.287-0.091l2.454-1.725c0.227-0.159,0.28-0.471,0.122-0.696
			c-0.159-0.227-0.473-0.281-0.696-0.122l-2.454,1.725c-0.227,0.159-0.28,0.471-0.122,0.696C26.688,16.65,26.843,16.725,27,16.725z"
			/>
		<path class="open_een" d="M21.758,13.062c0.076,0.042,0.16,0.062,0.242,0.062c0.176,0,0.346-0.093,0.437-0.258l1.454-2.624
			c0.134-0.241,0.047-0.546-0.195-0.68c-0.239-0.132-0.545-0.047-0.68,0.195l-1.454,2.624
			C21.429,12.623,21.516,12.928,21.758,13.062z"/>
		<path class="open_een" d="M16,12c0.276,0,0.5-0.224,0.5-0.5v-3C16.5,8.224,16.276,8,16,8s-0.5,0.224-0.5,0.5v3
			C15.5,11.776,15.724,12,16,12z"/>
		<path class="open_een" d="M4.713,16.634C4.8,16.695,4.9,16.725,5,16.725c0.157,0,0.312-0.074,0.409-0.213
			c0.158-0.226,0.104-0.537-0.122-0.696l-2.454-1.725c-0.225-0.159-0.536-0.104-0.696,0.122c-0.158,0.226-0.104,0.537,0.122,0.696
			L4.713,16.634z"/>
		<path class="open_een" d="M9.562,12.866c0.092,0.165,0.262,0.258,0.438,0.258c0.082,0,0.166-0.021,0.242-0.062
			c0.242-0.134,0.329-0.438,0.195-0.68L8.983,9.758c-0.135-0.242-0.441-0.327-0.68-0.195c-0.242,0.134-0.329,0.438-0.195,0.68
			L9.562,12.866z"/>
		<path class="open_een" d="M29.5,23h-2.706C25.84,17.842,21.283,14,16,14s-9.84,3.842-10.794,9H2.5C2.224,23,2,23.224,2,23.5
			S2.224,24,2.5,24c0,0,3.096,0,3.12,0c0.244,0,0.458-0.18,0.494-0.429C6.814,18.685,11.065,15,16,15c4.741,0,8.85,3.4,9.787,8H9.5
			C9.224,23,9,23.224,9,23.5S9.224,24,9.5,24h20c0.276,0,0.5-0.224,0.5-0.5S29.776,23,29.5,23z"/>
	</g>
	<g>
		<path class="open_een" d="M27,16.725c0.1,0,0.2-0.029,0.287-0.091l2.454-1.725c0.227-0.159,0.28-0.471,0.122-0.696
			c-0.159-0.227-0.473-0.281-0.696-0.122l-2.454,1.725c-0.227,0.159-0.28,0.471-0.122,0.696C26.688,16.65,26.843,16.725,27,16.725z"
			/>
		<path class="open_een" d="M21.758,13.062c0.076,0.042,0.16,0.062,0.242,0.062c0.176,0,0.346-0.093,0.437-0.258l1.454-2.624
			c0.134-0.241,0.047-0.546-0.195-0.68c-0.239-0.132-0.545-0.047-0.68,0.195l-1.454,2.624
			C21.429,12.623,21.516,12.928,21.758,13.062z"/>
		<path class="open_een" d="M16,12c0.276,0,0.5-0.224,0.5-0.5v-3C16.5,8.224,16.276,8,16,8s-0.5,0.224-0.5,0.5v3
			C15.5,11.776,15.724,12,16,12z"/>
		<path class="open_een" d="M4.713,16.634C4.8,16.695,4.9,16.725,5,16.725c0.157,0,0.312-0.074,0.409-0.213
			c0.158-0.226,0.104-0.537-0.122-0.696l-2.454-1.725c-0.225-0.159-0.536-0.104-0.696,0.122c-0.158,0.226-0.104,0.537,0.122,0.696
			L4.713,16.634z"/>
		<path class="open_een" d="M9.562,12.866c0.092,0.165,0.262,0.258,0.438,0.258c0.082,0,0.166-0.021,0.242-0.062
			c0.242-0.134,0.329-0.438,0.195-0.68L8.983,9.758c-0.135-0.242-0.441-0.327-0.68-0.195c-0.242,0.134-0.329,0.438-0.195,0.68
			L9.562,12.866z"/>
		<path class="open_een" d="M29.5,23h-2.706C25.84,17.842,21.283,14,16,14s-9.84,3.842-10.794,9H2.5C2.224,23,2,23.224,2,23.5
			S2.224,24,2.5,24c0,0,3.096,0,3.12,0c0.244,0,0.458-0.18,0.494-0.429C6.814,18.685,11.065,15,16,15c4.741,0,8.85,3.4,9.787,8H9.5
			C9.224,23,9,23.224,9,23.5S9.224,24,9.5,24h20c0.276,0,0.5-0.224,0.5-0.5S29.776,23,29.5,23z"/>
	</g>
</g>
</svg>